<svg width="78" height="78" viewBox="0 0 78 78" fill="none" xmlns="http://www.w3.org/2000/svg">
    <g filter="url(#filter0_d_49_437)">
    <path d="M41.8165 20.5554C42.5684 19.8035 42.9846 18.8032 42.9846 17.7357C42.9846 15.5337 41.1921 13.748 38.9968 13.748C36.8015 13.748 35.009 15.5404 35.009 17.7357C35.009 18.8032 35.4253 19.8035 36.1772 20.5554L49.7921 34.177L46.9724 36.9967L33.3575 23.3751C31.9141 21.9317 31.0212 19.931 31.0212 17.729C31.0212 13.325 34.5928 9.75345 38.9968 9.75345C43.4009 9.75345 46.9724 13.325 46.9724 17.729C46.9724 19.931 46.0795 21.9249 44.6361 23.3683L41.8165 20.5554Z" fill="white"/>
    <path d="M41.8163 20.5554L42.3601 21.0992C43.2597 20.2063 43.7565 18.9979 43.7565 17.729C43.7565 15.1041 41.6216 12.9692 38.9967 12.9692C36.3717 12.9692 34.2435 15.1041 34.2368 17.729C34.2368 18.9979 34.7336 20.1996 35.6332 21.0992L48.7043 34.177L46.979 35.9024L33.9011 22.8313C32.592 21.5222 31.7931 19.7229 31.7931 17.7358C31.7931 17.5344 31.7126 17.333 31.5649 17.192C31.4172 17.051 31.2225 16.9637 31.0211 16.9637C30.8197 16.9637 30.6183 17.0443 30.4773 17.192C30.3363 17.3397 30.249 17.5344 30.249 17.7358C30.249 17.9372 30.3296 18.1386 30.4773 18.2796C30.625 18.4205 30.8197 18.5078 31.0211 18.5078C31.2225 18.5078 31.4239 18.4272 31.5649 18.2796C31.7058 18.1319 31.7931 17.9372 31.7931 17.7358C31.7998 13.7547 35.0223 10.5389 38.9967 10.5322C42.9777 10.5389 46.1935 13.7614 46.2002 17.7358C46.2002 19.7297 45.3946 21.5222 44.0922 22.8313L44.636 23.3751L45.1797 22.8313L42.3601 20.0116L41.8163 20.5554L42.3601 21.0992L41.8163 20.5554L41.2725 21.0992L44.0922 23.9189C44.2332 24.0598 44.4346 24.1471 44.636 24.1471C44.8374 24.1471 45.0388 24.0666 45.1797 23.9189C46.7641 22.3345 47.7443 20.1459 47.7443 17.729C47.7443 12.8954 43.8303 8.98141 38.9967 8.98141C34.163 8.98141 30.249 12.8954 30.249 17.729C30.249 17.9305 30.3296 18.1319 30.4773 18.2728C30.625 18.4138 30.8197 18.5011 31.0211 18.5011C31.2225 18.5011 31.4239 18.4205 31.5649 18.2728C31.7058 18.1251 31.7931 17.9305 31.7931 17.729C31.7931 17.5276 31.7126 17.3262 31.5649 17.1853C31.4172 17.0443 31.2225 16.957 31.0211 16.957C30.8197 16.957 30.6183 17.0376 30.4773 17.1853C30.3363 17.333 30.249 17.5276 30.249 17.729C30.249 20.1392 31.2292 22.3345 32.8136 23.9189L46.4352 37.5337C46.7373 37.8359 47.2274 37.8359 47.5295 37.5337L50.3491 34.7141C50.4901 34.5731 50.5774 34.3717 50.5774 34.1703C50.5774 33.9689 50.4968 33.7675 50.3491 33.6265L36.7208 20.0116C36.1099 19.4007 35.7809 18.6018 35.7742 17.7358C35.7742 15.9634 37.2176 14.52 38.9899 14.52C40.7623 14.52 42.2057 15.9634 42.2057 17.7358C42.2057 18.6018 41.8767 19.4007 41.2658 20.0116C41.1181 20.1593 41.0375 20.354 41.0375 20.5554C41.0375 20.7635 41.1181 20.9582 41.2658 21.0992L41.8163 20.5554Z" fill="white"/>
    <path d="M55.4311 39.8163C56.183 40.5682 57.1833 40.9844 58.2508 40.9844C60.4461 40.9844 62.2386 39.1919 62.2386 36.9966C62.2386 34.7946 60.4528 33.0088 58.2575 33.0088C57.1901 33.0088 56.1897 33.4251 55.4378 34.177L41.8162 47.7919L38.9966 44.9722L52.6182 31.3573C54.0616 29.9139 56.0555 29.021 58.2575 29.021C62.6615 29.021 66.2331 32.5926 66.2331 37.0033C66.2331 41.4141 62.6615 44.9789 58.2575 44.9789C56.0555 44.9789 54.0616 44.086 52.6182 42.6426L55.4311 39.8163Z" fill="white"/>
    <path d="M55.4312 39.8162L54.8874 40.36C55.7803 41.2596 56.9887 41.7564 58.2576 41.7564C60.8825 41.7564 63.0174 39.6215 63.0174 36.9966C63.0174 34.3716 60.8892 32.2367 58.2643 32.2367C58.0562 32.2367 57.8615 32.3173 57.7205 32.465C57.5728 32.6127 57.4922 32.8074 57.4922 33.0088H58.2643V32.2367C56.9954 32.2367 55.7937 32.7335 54.8941 33.6264L41.8163 46.7042L40.0909 44.9789L53.1621 31.9011C54.4712 30.5986 56.2637 29.793 58.2576 29.793C58.6134 29.793 58.9289 29.5446 59.0095 29.1955C59.09 28.8464 58.9222 28.4839 58.6 28.3295L58.2576 29.021V29.793C62.2386 29.7997 65.4544 33.0222 65.4611 37.0033C65.4544 40.9844 62.2319 44.2001 58.2576 44.2068C56.2637 44.2068 54.4712 43.4012 53.1621 42.0988L52.6183 42.6426L53.1621 43.1864L55.9817 40.3667L55.4312 39.8162L54.8874 40.36L55.4312 39.8162L54.8874 39.2724L52.0678 42.0921C51.7657 42.3942 51.7657 42.8843 52.0678 43.1864C53.6454 44.7707 55.8407 45.7509 58.2576 45.7509C63.0913 45.7509 67.0052 41.837 67.0052 37.0033C67.0052 32.1696 63.0913 28.2489 58.2576 28.2489C57.9018 28.2489 57.5862 28.4973 57.5057 28.8464C57.4251 29.1955 57.5929 29.5581 57.9152 29.7125L58.2576 29.021V28.2489C55.8407 28.2489 53.6521 29.2291 52.0678 30.8135L38.4529 44.4284C38.3119 44.5693 38.2246 44.7707 38.2246 44.9722C38.2246 45.1736 38.3052 45.375 38.4529 45.5159L41.2725 48.3356C41.5746 48.6377 42.0647 48.6377 42.3668 48.3356L55.9817 34.7207C56.5993 34.1098 57.3915 33.7808 58.2576 33.7808C58.459 33.7808 58.6604 33.7003 58.8014 33.5526C58.9423 33.4049 59.0296 33.2102 59.0296 33.0088H58.2576V33.7808C60.0299 33.7808 61.4733 35.2242 61.4666 36.9966C61.4666 38.7689 60.0232 40.2123 58.2509 40.2123C57.3848 40.2123 56.5859 39.8834 55.975 39.2724C55.8273 39.1247 55.6326 39.0442 55.4312 39.0442C55.2231 39.0442 55.0284 39.1247 54.8874 39.2724L55.4312 39.8162Z" fill="white"/>
    <path d="M22.5554 34.1769C21.7967 33.425 20.8032 33.0088 19.7357 33.0088C17.5337 33.0088 15.7479 34.8013 15.7479 36.9966C15.7479 39.1986 17.5337 40.9844 19.7357 40.9911C20.8032 40.9911 21.8035 40.5749 22.5554 39.823L36.177 26.2014L38.9966 29.021L25.375 42.6359C23.9316 44.0793 21.931 44.9722 19.729 44.9722C15.3183 44.9722 11.7534 41.4006 11.7534 36.9899C11.7534 32.5859 15.325 29.0143 19.729 29.0143C21.931 29.0143 23.9249 29.9072 25.3683 31.3506L22.5554 34.1769Z" fill="white"/>
    <path d="M22.5554 34.177L23.0992 33.6332C22.2063 32.7336 20.9979 32.2368 19.7291 32.2368C17.1041 32.2368 14.9692 34.3716 14.9692 36.9966C14.9692 39.6216 17.0974 41.7564 19.7291 41.7632C19.9372 41.7632 20.1319 41.6826 20.2729 41.5349C20.4206 41.3872 20.5011 41.1925 20.5011 40.9911H19.7291V41.7632C20.9979 41.7632 22.1996 41.2664 23.0992 40.3668L36.1771 27.2889L37.9024 29.0143L24.8313 42.0921C23.5222 43.3945 21.723 44.2001 19.7358 44.2069C19.3934 44.2069 19.098 44.4284 18.9973 44.7507C18.8966 45.0729 19.0242 45.4287 19.3061 45.6167L19.7358 44.9789V44.2069C15.7547 44.1934 12.539 40.9777 12.5323 36.9966C12.539 33.0155 15.7547 29.7998 19.7358 29.7931C21.7297 29.7931 23.5222 30.5987 24.8313 31.9011L25.3751 31.3573L24.8313 30.8135L22.0117 33.6332L22.5554 34.177L23.0992 33.6332L22.5554 34.177L23.0992 34.7207L25.9189 31.9011C26.0666 31.7534 26.1471 31.5587 26.1471 31.3573C26.1471 31.1492 26.0666 30.9545 25.9189 30.8135C24.3345 29.2359 22.1459 28.249 19.7291 28.2557C14.8954 28.2557 10.9814 32.1696 10.9814 37.0033C10.9814 41.837 14.8954 45.7577 19.7291 45.7577C20.0715 45.7577 20.3669 45.5361 20.4676 45.2139C20.5683 44.8916 20.4407 44.5358 20.1587 44.3478L19.7291 44.9856V45.7577C22.1392 45.7577 24.3345 44.7775 25.9189 43.1931L39.5405 29.5782C39.8426 29.2761 39.8426 28.7861 39.5405 28.4839L36.7208 25.6643C36.4187 25.3622 35.9287 25.3622 35.6265 25.6643L22.0117 39.2725C21.394 39.8834 20.6018 40.2124 19.7358 40.2191C19.5344 40.2191 19.333 40.2996 19.192 40.4473C19.051 40.595 18.9637 40.7897 18.9637 40.9911H19.7358V40.2191C17.9634 40.2191 16.52 38.7757 16.52 36.9966C16.52 35.2243 17.9634 33.7876 19.7358 33.7809C20.6018 33.7809 21.394 34.1098 22.0117 34.7207C22.3138 35.0229 22.8038 35.0229 23.1059 34.7207L22.5554 34.177Z" fill="white"/>
    <path d="M58.2576 24.033H57.4855H58.2576V23.2609C54.9478 23.2609 51.8126 24.4358 49.3287 26.5706L49.8322 27.1547L50.376 26.6109L49.3891 25.624L48.8453 26.1678L49.4294 26.6713C51.5642 24.1874 52.7324 21.0455 52.7324 17.7357C52.7324 10.163 46.5761 4 38.9966 4C31.4171 4 25.2609 10.163 25.2609 17.7357C25.2609 21.0455 26.4425 24.1807 28.5706 26.6646L29.1547 26.1611L28.6109 25.6173L27.624 26.6042L28.1678 27.148L28.6713 26.5639C26.1874 24.4291 23.0388 23.2609 19.729 23.2609C12.163 23.2609 6 29.4239 6 36.9966C6 44.5761 12.163 50.7324 19.7357 50.7391C19.9371 50.7391 20.1385 50.6585 20.2795 50.5108C20.4205 50.3631 20.5078 50.1684 20.5078 49.967H19.7357V50.7391C23.0455 50.7391 26.1807 49.5642 28.6646 47.4294L28.1611 46.8453L27.6173 47.3891L28.6042 48.376L29.148 47.8322L28.5639 47.3287C26.4291 49.8126 25.2609 52.9612 25.2609 56.2643C25.2609 63.837 31.4239 70 38.9966 70C46.5761 70 52.7324 63.837 52.7324 56.2643C52.7324 56.0629 52.6518 55.8615 52.5041 55.7205C52.3564 55.5795 52.1617 55.4922 51.9603 55.4922V56.2643H52.7324C52.7324 52.9545 51.5575 49.8193 49.4226 47.3354L48.8386 47.8389L49.3824 48.3827L50.3692 47.3958L49.8254 46.852L49.3219 47.4361C51.8059 49.5777 54.9545 50.7391 58.2643 50.7391C65.837 50.7391 72 44.5761 72 37.0034C72 29.4239 65.837 23.2676 58.2643 23.2609C58.0629 23.2609 57.8615 23.3415 57.7205 23.4892C57.5795 23.6369 57.4922 23.8316 57.4922 24.033H58.2576V24.805C64.9777 24.8184 70.4358 30.2765 70.4492 36.9966C70.4358 43.7168 64.9777 49.1749 58.2576 49.1883C55.3103 49.1883 52.5377 48.1544 50.3222 46.2545C50.0134 45.9927 49.5569 46.0061 49.2749 46.2948L48.2881 47.2817C48.0061 47.5636 47.986 48.0269 48.2478 48.329C50.1477 50.5444 51.1883 53.3103 51.1883 56.2508C51.1883 56.4522 51.2688 56.6536 51.4165 56.7946C51.5642 56.9356 51.7589 57.0229 51.9603 57.0229V56.2508H51.1883C51.1749 62.9777 45.7168 68.4358 38.9966 68.4492C32.2765 68.4358 26.8117 62.9777 26.805 56.2576C26.805 53.3103 27.8389 50.5377 29.7388 48.3222C30.0006 48.0134 29.9872 47.5569 29.6985 47.2749L28.7116 46.2881C28.4297 46.0061 27.9664 45.986 27.6643 46.2478C25.4489 48.1477 22.6829 49.1883 19.7424 49.1883C19.541 49.1883 19.3396 49.2688 19.1987 49.4165C19.0577 49.5642 18.9704 49.7589 18.9704 49.9603H19.7424V49.1883C13.0156 49.1749 7.55752 43.7168 7.5441 36.9966C7.55752 30.2765 13.0156 24.8184 19.7357 24.805C22.6829 24.805 25.4556 25.8389 27.671 27.7388C27.9799 28.0006 28.4364 27.9805 28.7183 27.6985L29.7052 26.7116C29.9872 26.4297 30.0073 25.9664 29.7455 25.6643C27.8456 23.4556 26.805 20.6829 26.805 17.7424C26.8184 11.0156 32.2765 5.55752 38.9966 5.5441C45.7168 5.55752 51.1749 11.0156 51.1883 17.7357C51.1883 20.6829 50.1544 23.4623 48.2612 25.671C47.9994 25.9799 48.0128 26.4364 48.3015 26.7183L49.2884 27.7052C49.5703 27.9872 50.0336 28.0073 50.3357 27.7455C52.5511 25.8456 55.3171 24.805 58.2576 24.805C58.459 24.805 58.6604 24.7244 58.8013 24.5767C58.9423 24.4291 59.0296 24.2344 59.0296 24.033H58.2576V24.805V24.033Z" fill="white"/>
    <path d="M36.1771 53.4312C35.4252 54.1831 35.009 55.1834 35.009 56.2508C35.009 58.4461 36.8015 60.2386 38.9968 60.2386C41.1921 60.2386 42.9846 58.4528 42.9846 56.2508C42.9846 55.1834 42.5683 54.1831 41.8164 53.4312L28.1948 39.8163L31.0145 36.9966L44.6361 50.6182C46.0795 52.0616 46.9724 54.0555 46.9724 56.2575C46.9724 60.6615 43.4008 64.2331 38.9968 64.2331C34.586 64.2331 31.0212 60.6615 31.0212 56.2575C31.0212 54.0555 31.9141 52.0616 33.3575 50.6182L36.1771 53.4312Z" fill="white"/>
    <path d="M36.1771 53.4311L35.6333 52.8873C34.7404 53.7802 34.2369 54.9887 34.2436 56.2508C34.2436 58.8758 36.3785 61.0106 39.0035 61.0106C41.6284 61.0106 43.7633 58.8825 43.7633 56.2508C43.7633 56.0427 43.6828 55.848 43.5351 55.707C43.3874 55.5593 43.1927 55.4787 42.9913 55.4787V56.2508H43.7633C43.7633 54.9819 43.2665 53.7802 42.3736 52.8806L29.2891 39.8162L31.0145 38.0842L44.0856 51.162C45.3947 52.4711 46.2003 54.2636 46.2003 56.2575C46.2003 56.62 46.4487 56.9288 46.7978 57.0094C47.1469 57.09 47.5094 56.9154 47.6638 56.5932L46.9656 56.2575H46.1936C46.1869 60.2386 42.9644 63.4543 38.99 63.461C35.009 63.4543 31.7932 60.2319 31.7865 56.2575C31.7865 54.2636 32.5921 52.4711 33.8945 51.162L33.3507 50.6182L32.807 51.162L35.6266 53.9816L36.1771 53.4311L35.6333 52.8873L36.1771 53.4311L36.7209 52.8873L33.9012 50.0677C33.5991 49.7656 33.1091 49.7656 32.807 50.0677C31.2226 51.6454 30.2424 53.8407 30.2424 56.2575C30.2424 61.0912 34.1564 65.0051 38.99 65.0051C43.8237 65.0051 47.7377 61.0912 47.7377 56.2575C47.7377 55.895 47.4893 55.5862 47.1402 55.5056C46.7911 55.425 46.4286 55.5996 46.2742 55.9218L46.9723 56.2575H47.7444C47.7444 53.8407 46.7642 51.6521 45.1799 50.0677L31.565 36.4461C31.4173 36.2984 31.2226 36.2178 31.0212 36.2178C30.8131 36.2178 30.6184 36.2984 30.4774 36.4461L27.6577 39.2657C27.3556 39.5678 27.3556 40.0579 27.6577 40.36L41.2726 53.9816C41.8835 54.5993 42.2125 55.3982 42.2192 56.2575C42.2192 56.4589 42.2998 56.6603 42.4475 56.8013C42.5952 56.9423 42.7899 57.0296 42.9913 57.0296V56.2575H42.2192C42.2192 58.0299 40.7758 59.4665 39.0035 59.4732C37.2311 59.4732 35.7877 58.0299 35.7877 56.2575C35.7877 55.3915 36.1167 54.5926 36.7276 53.9816C37.0297 53.6795 37.0297 53.1895 36.7276 52.8873L36.1771 53.4311Z" fill="white"/>
    <path d="M38.99 44.9722L39.5338 44.4285L32.102 36.9967L38.99 30.1154L45.878 36.9967L38.4462 44.4285L38.99 44.9722L39.5338 44.4285L38.99 44.9722L39.5338 45.516L47.5094 37.5404C47.6503 37.3995 47.7376 37.1981 47.7376 36.9967C47.7376 36.7953 47.657 36.5938 47.5094 36.4529L39.5338 28.4706C39.2317 28.1685 38.7416 28.1685 38.4395 28.4706L30.4639 36.4462C30.1618 36.7483 30.1618 37.2383 30.4639 37.5404L38.4462 45.5227C38.5872 45.6637 38.7886 45.751 38.99 45.751C39.1914 45.751 39.3928 45.6704 39.5338 45.5227L38.99 44.9722Z" fill="white"/>
    </g>
    <defs>
    <filter id="filter0_d_49_437" x="0" y="0" width="78" height="78" filterUnits="userSpaceOnUse" color-interpolation-filters="sRGB">
    <feFlood flood-opacity="0" result="BackgroundImageFix"/>
    <feColorMatrix in="SourceAlpha" type="matrix" values="0 0 0 0 0 0 0 0 0 0 0 0 0 0 0 0 0 0 127 0" result="hardAlpha"/>
    <feOffset dy="2"/>
    <feGaussianBlur stdDeviation="3"/>
    <feComposite in2="hardAlpha" operator="out"/>
    <feColorMatrix type="matrix" values="0 0 0 0 0.0980392 0 0 0 0 0.0980392 0 0 0 0 0.0980392 0 0 0 0.25 0"/>
    <feBlend mode="normal" in2="BackgroundImageFix" result="effect1_dropShadow_49_437"/>
    <feBlend mode="normal" in="SourceGraphic" in2="effect1_dropShadow_49_437" result="shape"/>
    </filter>
    </defs>
    </svg>
    