<?xml version="1.0" standalone="no"?>
<!DOCTYPE svg PUBLIC "-//W3C//DTD SVG 20010904//EN"
 "http://www.w3.org/TR/2001/REC-SVG-20010904/DTD/svg10.dtd">
<svg version="1.0" xmlns="http://www.w3.org/2000/svg"
 width="533.000000pt" height="533.000000pt" viewBox="0 0 533.000000 533.000000"
 preserveAspectRatio="xMidYMid meet">

<g transform="translate(0.000000,533.000000) scale(0.100000,-0.100000)"
fill="#000000" stroke="none">
<path d="M0 5074 l0 -255 288 -141 c158 -77 337 -164 397 -193 97 -46 366
-177 1035 -502 243 -119 441 -213 446 -213 2 0 4 351 4 780 l0 780 -1085 0
-1085 0 0 -256z"/>
<path d="M2520 4300 l0 -1030 -1260 0 -1260 0 0 -520 0 -520 993 0 993 0 255
211 c140 116 335 277 434 359 99 81 318 262 486 401 168 140 333 277 367 304
l61 50 0 888 1 887 -535 0 -535 0 0 -1030z"/>
<path d="M3950 4594 c0 -588 3 -734 13 -727 26 21 313 257 557 460 327 271
679 562 752 622 l57 46 0 168 1 167 -690 0 -690 0 0 -736z"/>
<path d="M4938 4417 l-387 -322 -1 -2047 0 -2048 390 0 390 0 0 2370 c0 1304
-1 2370 -2 2369 -2 0 -177 -145 -390 -322z"/>
<path d="M0 4039 l0 -190 123 -58 c67 -32 173 -84 236 -115 l113 -56 395 2
395 3 -624 303 c-343 166 -627 302 -631 302 -4 0 -7 -86 -7 -191z"/>
<path d="M0 3635 c0 -10 10 -15 33 -15 30 1 31 1 13 15 -25 19 -46 19 -46 0z"/>
<path d="M0 1870 c0 -20 1 -20 33 -4 45 23 45 24 4 24 -30 0 -37 -4 -37 -20z"/>
<path d="M1175 1839 c-55 -27 -341 -165 -635 -308 l-535 -259 -3 -195 -2 -196
237 116 c131 63 328 159 438 213 l200 98 285 237 c157 130 308 256 337 278 82
66 81 67 -80 66 l-142 0 -100 -50z"/>
<path d="M1549 1609 c-241 -199 -322 -266 -959 -795 -179 -148 -385 -318 -458
-378 l-132 -109 0 -163 0 -164 900 0 900 0 0 905 c0 498 -2 905 -4 905 -2 0
-113 -91 -247 -201z"/>
<path d="M133 754 l-133 -64 0 -50 c0 -38 3 -49 13 -43 10 6 228 185 262 215
20 18 -15 4 -142 -58z"/>
</g>
</svg>
